<svg xmlns="http://www.w3.org/2000/svg" xml:space="preserve" style="fill-rule:evenodd;clip-rule:evenodd;stroke-linejoin:round;stroke-miterlimit:2" viewBox="-0.03 -0.03 182.08 139.47"><path d="M43.399 63.29c2.575 3.906 4.081 7.428 4.081 8.72 0 3.49-10.96 23.21-24.24 23.21-17.18.45-28.89-19.47-20.42-34.23h.011A23.258 23.258 0 0 1 23.24 48.88c7.41 0 14.1 6.09 18.56 12.13.282.379.556.758.82 1.134V28.59a27.411 27.411 0 0 1 .19-3.29h.001a28.292 28.292 0 0 1 4.669-12.64v-.05c.26-.37.53-.75.81-1.12.28-.37.47-.61.7-.91.23-.3.57-.67.86-1 .29-.33.56-.63.86-.93.151-.176.314-.339.49-.49a29.205 29.205 0 0 1 3.4-2.84c.32-.24.66-.46 1-.68.34-.22.77-.49 1.17-.72a23.599 23.599 0 0 1 2.29-1.21l.75-.34a27.883 27.883 0 0 1 3.79-1.334A28.595 28.595 0 0 1 71.21 0h82.2a28.614 28.614 0 0 1 23.76 12.66 28.173 28.173 0 0 1 4.67 12.65h-.029c.142 1.088.218 2.183.229 3.28v34.68h-.01v47.61c-.044 15.67-12.95 28.54-28.62 28.54H141.3v-28H83.35v28H71.22c-15.659-.016-28.546-12.881-28.59-28.54V84.96h91.87V35.5h-12.05v6.77h-6.37V35.5h-10.2v11.51h-6.37V35.5h-9.36v2.46h.01v25.31h-.01v.02H43.399Zm-29.756-2.3h.017c-16 15.6 10.11 42.15 25 11a40.51 40.51 0 0 0-8.25-10.98c-5.052-5.321-11.978-4.134-16.767-.02Z" style="fill:#fd4b2d"/></svg>
