<?xml version="1.0" encoding="UTF-8" standalone="no"?><!DOCTYPE svg PUBLIC "-//W3C//DTD SVG 1.1//EN" "http://www.w3.org/Graphics/SVG/1.1/DTD/svg11.dtd"><svg width="100%" height="100%" viewBox="0 0 512 448" version="1.1" xmlns="http://www.w3.org/2000/svg" xmlns:xlink="http://www.w3.org/1999/xlink" xml:space="preserve" xmlns:serif="http://www.serif.com/" style="fill-rule:evenodd;clip-rule:evenodd;stroke-linejoin:round;stroke-miterlimit:2;"><path d="M32,48C32,21.5 53.5,0 80,0L432,0C458.5,0 480,21.5 480,48L480,177.1C465.5,168.7 449.3,163.1 432,161L432,128C432,110.3 417.7,96 400,96L304,96C286.3,96 272,110.3 272,128L272,160L240,160L240,128C240,110.3 225.7,96 208,96L112,96C94.3,96 80,110.3 80,128L80,161C62.7,163.2 46.4,168.8 32,177.1L32,48ZM0,288C0,235 43,192 96,192L416,192C469,192 512,235 512,288L512,416C512,433.7 497.7,448 480,448C462.3,448 448,433.7 448,416L448,384L64,384L64,416C64,433.7 49.7,448 32,448C14.3,448 0,433.7 0,416L0,288ZM317.205,244.665C317.205,239.829 313.298,235.922 308.461,235.922C303.625,235.922 299.718,239.829 299.718,244.665L299.718,332.101C299.718,336.937 303.625,340.844 308.461,340.844C313.298,340.844 317.205,336.937 317.205,332.101L317.205,244.665ZM212.282,279.64C212.282,274.803 208.375,270.896 203.539,270.896C198.702,270.896 194.795,274.803 194.795,279.64L194.795,297.127C194.795,301.963 198.702,305.87 203.539,305.87C208.375,305.87 212.282,301.963 212.282,297.127L212.282,279.64ZM238.513,253.409C238.513,248.573 234.606,244.665 229.769,244.665C224.933,244.665 221.026,248.573 221.026,253.409L221.026,323.357C221.026,328.194 224.933,332.101 229.769,332.101C234.606,332.101 238.513,328.194 238.513,323.357L238.513,253.409ZM290.974,262.153C290.974,257.316 287.067,253.409 282.231,253.409C277.394,253.409 273.487,257.316 273.487,262.153L273.487,314.614C273.487,319.45 277.394,323.357 282.231,323.357C287.067,323.357 290.974,319.45 290.974,314.614L290.974,262.153ZM325.948,288.383C325.948,293.18 329.895,297.127 334.692,297.127C339.488,297.127 343.435,293.18 343.435,288.383C343.435,283.587 339.488,279.64 334.692,279.64C329.895,279.64 325.948,283.587 325.948,288.383ZM168.565,288.383C168.565,293.18 172.512,297.127 177.308,297.127C182.105,297.127 186.052,293.18 186.052,288.383C186.052,283.587 182.105,279.64 177.308,279.64C172.512,279.64 168.565,283.587 168.565,288.383ZM264.744,227.178C264.744,222.342 260.836,218.435 256,218.435C251.164,218.435 247.256,222.342 247.256,227.178L247.256,349.588C247.256,354.424 251.164,358.332 256,358.332C260.836,358.332 264.744,354.424 264.744,349.588L264.744,227.178Z" style="fill:url(#_Linear1);fill-rule:nonzero;"/><defs><linearGradient id="_Linear1" x1="0" y1="0" x2="1" y2="0" gradientUnits="userSpaceOnUse" gradientTransform="matrix(2.74321e-14,448,-392,2.40031e-14,256,32)"><stop offset="0" style="stop-color:#673ab7;stop-opacity:1"/><stop offset="0.56" style="stop-color:#5e3cb7;stop-opacity:1"/><stop offset="1" style="stop-color:#3a43b7;stop-opacity:1"/></linearGradient></defs></svg>