<svg xmlns="http://www.w3.org/2000/svg" xml:space="preserve" style="fill-rule:evenodd;clip-rule:evenodd;stroke-linejoin:round;stroke-miterlimit:2" viewBox="0 0 512 448"><path d="M32 80c0-26 22-48 48-48h352c27 0 48 22 48 48v129c-14-8-31-14-48-16v-33c0-18-14-32-32-32h-96c-18 0-32 14-32 32v32h-32v-32c0-18-14-32-32-32h-96c-18 0-32 14-32 32v33c-17 2-34 8-48 16V80ZM0 320c0-53 43-96 96-96h320c53 0 96 43 96 96v128a32 32 0 1 1-64 0v-32H64v32a32 32 0 1 1-64 0V320Z" style="fill:url(#a);fill-rule:nonzero" transform="translate(0 -32)"/><path d="M352 32a32 32 0 1 0-64 0v448a32 32 0 1 0 64 0V32Zm192 64a32 32 0 1 0-64 0v320a32 32 0 1 0 64 0V96Zm-288 32a32 32 0 1 0-64 0v256a32 32 0 1 0 64 0V128Zm192 32a32 32 0 1 0-64 0v192a32 32 0 1 0 64 0V160Zm-288 64a32 32 0 1 0-64 0v64a32 32 0 1 0 64 0v-64ZM0 256c0 18 14 32 32 32s32-14 32-32-14-32-32-32-32 14-32 32Zm576 0c0 18 14 32 32 32s32-14 32-32-14-32-32-32-32 14-32 32Z" style="fill:#fff;fill-rule:nonzero" transform="matrix(.273 0 0 .273 169 218)"/><defs><linearGradient id="a" x1="0" x2="1" y1="0" y2="0" gradientTransform="matrix(0 448 -392 0 256 32)" gradientUnits="userSpaceOnUse"><stop offset="0" style="stop-color:#673ab7;stop-opacity:1"/><stop offset=".6" style="stop-color:#5e3cb7;stop-opacity:1"/><stop offset="1" style="stop-color:#3a43b7;stop-opacity:1"/></linearGradient></defs></svg>