<svg xmlns="http://www.w3.org/2000/svg" xml:space="preserve" style="fill-rule:evenodd;clip-rule:evenodd;stroke-linejoin:round;stroke-miterlimit:2" viewBox="0 0 512 448"><path d="M32 48C32 22 54 0 80 0h352c27 0 48 22 48 48v129c-14-8-31-14-48-16v-33c0-18-14-32-32-32h-96c-18 0-32 14-32 32v32h-32v-32c0-18-14-32-32-32h-96c-18 0-32 14-32 32v33c-17 2-34 8-48 16V48ZM0 288c0-53 43-96 96-96h320c53 0 96 43 96 96v128a32 32 0 1 1-64 0v-32H64v32a32 32 0 1 1-64 0V288Zm239-35a9 9 0 1 0-18 0v70a9 9 0 1 0 18 0v-70Zm26-26a9 9 0 1 0-18 0v123a9 9 0 1 0 18 0V227Zm-96 61c0 5 4 9 8 9 5 0 9-4 9-9 0-4-4-8-9-8-4 0-8 4-8 8Zm157 0c0 5 4 9 9 9 4 0 8-4 8-9 0-4-4-8-8-8-5 0-9 4-9 8Zm-35-26a9 9 0 1 0-18 0v53a9 9 0 1 0 18 0v-53Zm-79 18a9 9 0 1 0-17 0v17a9 9 0 1 0 17 0v-17Zm105-35a9 9 0 1 0-17 0v87a9 9 0 1 0 17 0v-87Z" style="fill:#fff;fill-rule:nonzero"/></svg>