<?xml version="1.0" encoding="UTF-8" standalone="no"?><!DOCTYPE svg PUBLIC "-//W3C//DTD SVG 1.1//EN" "http://www.w3.org/Graphics/SVG/1.1/DTD/svg11.dtd"><svg width="100%" height="100%" viewBox="0 0 563 499" version="1.1" xmlns="http://www.w3.org/2000/svg" xmlns:xlink="http://www.w3.org/1999/xlink" xml:space="preserve" xmlns:serif="http://www.serif.com/" style="fill-rule:evenodd;clip-rule:evenodd;stroke-linejoin:round;stroke-miterlimit:2;"><g transform="matrix(1,0,0,1,-19.388,-19.388)"><g transform="matrix(1,0,0,1,44.7214,12.7214)"><path d="M6.667,237.912L6.667,80C6.667,39.514 39.514,6.667 80,6.667L432,6.667C472.486,6.667 505.333,39.514 505.333,80L505.333,237.461C525.299,259.088 537.333,288.261 537.333,320L537.333,448C537.333,479.712 511.713,505.333 480,505.333C448.288,505.333 422.667,479.712 422.667,448C422.667,448 422.667,441.333 422.667,441.333C422.667,441.333 89.333,441.333 89.333,441.333L89.333,448C89.333,479.712 63.713,505.333 32,505.333C0.287,505.333 -25.333,479.712 -25.333,448L-25.333,320C-25.333,288.349 -13.2,259.52 6.667,237.912ZM0,320L0,448C0,465.7 14.3,480 32,480C49.7,480 64,465.7 64,448L64,416L448,416L448,448C448,465.7 462.3,480 480,480C497.7,480 512,465.7 512,448L512,320C512,267 469,224 416,224L96,224C43,224 0,267 0,320ZM214.667,198.667L214.667,160C214.667,156.313 211.688,153.333 208,153.333L112,153.333C108.312,153.333 105.333,156.313 105.333,160L105.333,198.667L214.667,198.667ZM32,80L32,209.1C46.4,200.8 62.7,195.2 80,193L80,160C80,142.3 94.3,128 112,128L208,128C225.7,128 240,142.3 240,160L240,192L272,192L272,160C272,142.3 286.3,128 304,128L400,128C417.7,128 432,142.3 432,160L432,193C449.3,195.1 465.5,200.7 480,209.1L480,80C480,53.5 458.5,32 432,32L80,32C53.5,32 32,53.5 32,80ZM406.667,198.667L406.667,160C406.667,156.313 403.688,153.333 400,153.333L304,153.333C300.313,153.333 297.333,156.313 297.333,160L297.333,198.667L406.667,198.667Z" style="fill:#fff;"/></g><g transform="matrix(1,0,0,1,44.7214,12.7214)"><path d="M32,80C32,53.5 53.5,32 80,32L432,32C458.5,32 480,53.5 480,80L480,209.1C465.5,200.7 449.3,195.1 432,193L432,160C432,142.3 417.7,128 400,128L304,128C286.3,128 272,142.3 272,160L272,192L240,192L240,160C240,142.3 225.7,128 208,128L112,128C94.3,128 80,142.3 80,160L80,193C62.7,195.2 46.4,200.8 32,209.1L32,80ZM0,320C0,267 43,224 96,224L416,224C469,224 512,267 512,320L512,448C512,465.7 497.7,480 480,480C462.3,480 448,465.7 448,448L448,416L64,416L64,448C64,465.7 49.7,480 32,480C14.3,480 0,465.7 0,448L0,320Z" style="fill:url(#_Linear1);fill-rule:nonzero;"/></g><g transform="matrix(0.273236,0,0,0.273236,213.286,263.156)"><path d="M352,32C352,14.3 337.7,0 320,0C302.3,0 288,14.3 288,32L288,480C288,497.7 302.3,512 320,512C337.7,512 352,497.7 352,480L352,32ZM544,96C544,78.3 529.7,64 512,64C494.3,64 480,78.3 480,96L480,416C480,433.7 494.3,448 512,448C529.7,448 544,433.7 544,416L544,96ZM256,128C256,110.3 241.7,96 224,96C206.3,96 192,110.3 192,128L192,384C192,401.7 206.3,416 224,416C241.7,416 256,401.7 256,384L256,128ZM448,160C448,142.3 433.7,128 416,128C398.3,128 384,142.3 384,160L384,352C384,369.7 398.3,384 416,384C433.7,384 448,369.7 448,352L448,160ZM160,224C160,206.3 145.7,192 128,192C110.3,192 96,206.3 96,224L96,288C96,305.7 110.3,320 128,320C145.7,320 160,305.7 160,288L160,224ZM0,256C0,273.555 14.445,288 32,288C49.555,288 64,273.555 64,256C64,238.445 49.555,224 32,224C14.445,224 0,238.445 0,256ZM576,256C576,273.555 590.445,288 608,288C625.555,288 640,273.555 640,256C640,238.445 625.555,224 608,224C590.445,224 576,238.445 576,256Z" style="fill:#fff;fill-rule:nonzero;"/></g></g><defs><linearGradient id="_Linear1" x1="0" y1="0" x2="1" y2="0" gradientUnits="userSpaceOnUse" gradientTransform="matrix(2.74321e-14,448,-392,2.40031e-14,256,32)"><stop offset="0" style="stop-color:#673ab7;stop-opacity:1"/><stop offset="0.56" style="stop-color:#5e3cb7;stop-opacity:1"/><stop offset="1" style="stop-color:#3a43b7;stop-opacity:1"/></linearGradient></defs></svg>