<?xml version="1.0" standalone="no"?>
<!DOCTYPE svg PUBLIC "-//W3C//DTD SVG 20010904//EN"
 "http://www.w3.org/TR/2001/REC-SVG-20010904/DTD/svg10.dtd">
<svg version="1.0" xmlns="http://www.w3.org/2000/svg"
 width="1126.000000pt" height="1126.000000pt" viewBox="0 0 1126.000000 1126.000000"
 preserveAspectRatio="xMidYMid meet">
<metadata>
Created by potrace 1.14, written by Peter Selinger 2001-2017
</metadata>
<g transform="translate(0.000000,1126.000000) scale(0.100000,-0.100000)"
fill="#000000" stroke="none">
<path d="M1975 10113 c-85 -12 -201 -49 -290 -93 -255 -126 -435 -346 -513
-626 l-27 -99 -3 -1362 c-1 -750 0 -1363 3 -1363 2 0 73 33 157 74 247 120
434 181 693 224 l110 19 6 384 c4 233 11 400 18 426 60 225 206 382 426 460
l80 28 1060 0 c857 0 1071 -3 1115 -14 179 -43 340 -171 419 -331 66 -134 71
-174 71 -577 l0 -353 324 0 324 0 4 378 4 377 28 80 c71 203 207 340 411 412
l80 28 1060 0 c1173 0 1106 4 1254 -67 148 -71 271 -216 327 -388 16 -48 19
-107 23 -449 l6 -395 106 -17 c279 -44 531 -128 765 -255 45 -24 84 -44 88
-44 3 0 6 600 6 1334 0 1464 2 1417 -60 1589 -62 171 -206 354 -358 456 -86
58 -211 116 -307 143 l-80 23 -3650 1 c-2007 1 -3663 -1 -3680 -3z"/>
<path d="M2184 6265 c-319 -41 -644 -173 -905 -366 -107 -80 -284 -251 -364
-354 -223 -286 -366 -635 -404 -987 -7 -64 -11 -574 -11 -1470 0 -1500 -2
-1428 58 -1560 40 -86 110 -178 179 -234 68 -54 196 -117 271 -133 76 -16 224
-14 296 5 179 46 342 180 425 349 57 117 61 153 61 553 l0 362 3835 0 3835 0
0 -352 c0 -387 5 -435 58 -549 82 -180 246 -315 441 -365 91 -23 263 -16 351
15 187 65 343 221 412 411 l23 65 3 1425 c2 1233 0 1440 -13 1535 -121 874
-828 1558 -1707 1654 -155 17 -6711 13 -6844 -4z m3491 -536 c50 -14 100 -64
114 -114 15 -54 15 -2484 1 -2537 -15 -52 -53 -94 -105 -114 -79 -30 -168 3
-205 77 -20 37 -20 65 -20 1305 0 1397 -4 1308 62 1355 52 37 92 45 153 28z
m1090 -368 c16 -9 40 -32 53 -51 l22 -33 -2 -937 -3 -937 -27 -35 c-72 -95
-225 -82 -278 23 -19 37 -20 63 -20 954 0 887 1 917 19 954 43 83 151 112 236
62z m-1566 -179 c14 -10 36 -36 48 -58 l23 -39 0 -735 c0 -695 -1 -737 -19
-776 -38 -84 -148 -120 -228 -74 -51 29 -72 59 -84 124 -6 33 -9 319 -7 757 3
665 4 706 22 742 44 89 166 118 245 59z m1000 -152 c46 -13 99 -65 111 -110
13 -48 13 -1103 0 -1152 -13 -46 -76 -103 -123 -112 -83 -16 -174 40 -196 119
-17 63 -14 1098 3 1148 18 50 42 76 91 98 46 21 67 23 114 9z m-1549 -362 c25
-13 55 -38 67 -57 22 -33 23 -42 23 -266 0 -224 -1 -233 -23 -265 -69 -103
-227 -98 -284 10 -22 41 -23 53 -23 258 0 211 0 216 25 257 27 47 90 85 140
85 17 0 51 -10 75 -22z m-509 -181 c18 -12 44 -38 57 -57 20 -29 23 -44 20
-93 -5 -64 -25 -98 -78 -134 -69 -47 -178 -22 -230 54 -51 75 -20 196 61 236
50 25 129 22 170 -6z m3139 8 c78 -40 111 -145 71 -222 -28 -56 -72 -86 -136
-91 -96 -8 -172 55 -182 150 -6 55 28 124 76 155 41 27 126 31 171 8z"/>
</g>
</svg>
