<svg version="1" xmlns="http://www.w3.org/2000/svg" width="933.333" height="933.333" viewBox="0 0 700.000000 700.000000"><path d="M83 44.2c-18 2-30.7 12.4-37.2 30.5-2 5.7-2 7.3-2.1 95.9 0 49.5.2 90.5.5 91 .5.7 61.9 1.2 64.8.5.3 0 .5-10.6.4-23.3 0-12.8.4-25.6.9-28.3 2-11.6 11.4-24.5 21.5-29.8 11.1-5.8 9.2-5.7 87.6-5.6h72.1l6.7 2.3c13.1 4.6 22.9 14.1 27.3 26.6 2.3 6.6 2.5 9.3 2.6 34.7.1 16.5.4 23.3 1.3 23.5.6.2 10.3.4 21.6.3h20.5l.2-20c.2-26.5.7-33 3.2-39.5 4.1-10.8 13.7-20.4 25-25.2l5.6-2.3 73.4-.3c71.5-.3 73.7-.2 80.2 1.8 14.2 4.3 24.4 14.2 29.5 28.5 1.4 4.2 1.8 9.1 2 29.5.1 13.5.3 25.2.3 26 .1 1.3 4.4 1.5 32.6 1.5 28.3 0 32.5-.2 32.6-1.5.4-7.5 0-175.7-.4-179.7-1.4-11.6-9.3-23.7-20.4-30.9-11.1-7.2 11.5-6.7-281.8-6.8-145.2-.1-266.9.2-270.5.6zM73.4 307.5c-27.2 4-52.1 22.5-64 47.4-4.7 9.8-5.1 10.7-6.5 16.1-.6 2.5-1.4 5.4-1.7 6.5-1.2 4-1.4 256.7-.2 262.2 1.5 6.8 7.8 13.6 14.1 15.4 2.9.7 13.2 1.1 29.5 1.1 23.2 0 25.5-.2 29.5-2 5.9-2.8 8.2-5 11-10.3 2.2-4.3 2.3-4.9 2.3-39.6.1-30.7.3-35.3 1.6-35.4 1.7 0 511.9 0 519 .1h4.5v35.3c.1 34.7.1 35.3 2.3 39.6 2.8 5.3 5.2 7.5 11.2 10.3 4.2 2 6.1 2.1 30.7 2 24.9 0 26.5-.1 30.8-2.2 5.2-2.5 9.8-7.9 11.4-13.5.9-3 1.1-36.5.9-133l-.3-129-2.3-7.5c-10-32.6-34.3-55.5-67.2-63.1-7.8-1.8-544.4-2.2-556.6-.4z"/></svg>